<svg width="13" height="13" viewBox="0 0 13 13" fill="none" xmlns="http://www.w3.org/2000/svg">
<rect x="4" y="4" width="5" height="5" rx="2.5" fill="#D9D9D9"/>
<mask id="path-2-inside-1_195_54" fill="white">
<path d="M13 6.5C13 10.0899 10.0899 13 6.5 13C2.91015 13 0 10.0899 0 6.5C0 2.91015 2.91015 0 6.5 0C10.0899 0 13 2.91015 13 6.5ZM0.843067 6.5C0.843067 9.62424 3.37576 12.1569 6.5 12.1569C9.62424 12.1569 12.1569 9.62424 12.1569 6.5C12.1569 3.37576 9.62424 0.843067 6.5 0.843067C3.37576 0.843067 0.843067 3.37576 0.843067 6.5Z"/>
</mask>
<path d="M13 6.5C13 10.0899 10.0899 13 6.5 13C2.91015 13 0 10.0899 0 6.5C0 2.91015 2.91015 0 6.5 0C10.0899 0 13 2.91015 13 6.5ZM0.843067 6.5C0.843067 9.62424 3.37576 12.1569 6.5 12.1569C9.62424 12.1569 12.1569 9.62424 12.1569 6.5C12.1569 3.37576 9.62424 0.843067 6.5 0.843067C3.37576 0.843067 0.843067 3.37576 0.843067 6.5Z" stroke="white" stroke-width="2" stroke-dasharray="2 2" mask="url(#path-2-inside-1_195_54)"/>
</svg>
