<svg width="50" height="41" viewBox="0 0 50 41" fill="none" xmlns="http://www.w3.org/2000/svg">
<path d="M49.4103 1.80176C49.3723 1.63051 49.2898 1.47151 49.1708 1.33981C49.0518 1.20812 48.9002 1.10807 48.7302 1.04912C48.0881 0.924524 47.4232 0.970103 46.8055 1.18113C46.8055 1.18113 3.89627 16.1544 1.44781 17.8115C0.917312 18.168 0.767738 18.3793 0.652116 18.617C0.230438 19.7987 1.54985 20.3202 1.54985 20.3202L12.6087 23.8193C12.7919 23.8627 12.9832 23.8627 13.1664 23.8193C15.6828 22.2745 38.4807 8.30471 39.7933 7.83597C40.0042 7.77655 40.1538 7.83595 40.113 7.98119C39.5893 9.77693 19.7908 26.8562 19.7908 26.8562C19.7426 26.9176 19.7016 26.9841 19.6684 27.0543L18.6346 37.7033C18.6346 37.7033 18.2062 40.9647 21.566 37.7033C23.9328 35.3992 26.2316 33.4714 27.3742 32.5405C31.1761 35.0889 35.2705 37.9079 37.0389 39.3801C37.3349 39.6583 37.6855 39.8759 38.0699 40.0199C38.4543 40.164 38.8646 40.2315 39.2764 40.2186C40.9563 40.1592 41.4188 38.3701 41.4188 38.3701C41.4188 38.3701 49.2403 7.8227 49.4988 3.72948C49.4988 3.32676 49.56 3.06934 49.5668 2.79866C49.5642 2.4608 49.5115 2.12504 49.4103 1.80176Z" fill="white"/>
</svg>
