<svg width="21" height="14" viewBox="0 0 21 14" fill="none" xmlns="http://www.w3.org/2000/svg">
<path d="M20.3724 9.44379C20.433 9.38316 20.4361 9.38006 20.3688 9.31279C20.2115 9.15458 20.067 8.98409 19.9368 8.80306C19.4539 8.15531 18.5512 5.384 19.7703 3.5467C19.9225 3.3217 20.0884 3.10655 20.2672 2.90246C20.3403 2.82939 20.3403 2.8294 20.2682 2.75417L18.0628 0.548818C17.9187 0.404677 17.9565 0.405242 17.8151 0.546714L8.74847 9.61332C8.63834 9.72788 8.5185 9.83271 8.39024 9.9267C8.08525 10.1432 7.73783 10.2946 7.36879 10.3717C6.99975 10.4488 6.61671 10.4501 6.24266 10.3754C5.86861 10.3007 5.51127 10.1516 5.19206 9.93716C4.87286 9.72267 4.59837 9.44716 4.38508 9.12717C4.2578 8.92501 4.14901 8.71214 4.06007 8.49124L4.05588 8.42177C4.04501 8.32694 4.0231 8.23353 4.01077 8.14657C3.7923 7.03574 4.09708 6.09994 4.96894 5.42027C5.84079 4.7406 6.85414 4.66259 7.89806 5.15617C8.20776 5.30315 8.48581 5.51134 8.71496 5.76785C8.86823 5.93198 9.00224 6.11297 9.11425 6.30709C9.15311 6.37393 9.19434 6.38717 9.25661 6.33129C9.27527 6.31264 9.29393 6.29398 9.31414 6.27377C9.8567 5.73121 11.0205 4.52575 11.0204 4.51944C11.1759 4.36398 11.3313 4.20851 11.4868 4.05305C11.5319 4.00797 11.5172 3.97777 11.4835 3.93467C11.2278 3.61213 10.9422 3.3141 10.6309 3.04476C9.49809 2.06052 8.05967 1.50871 6.58088 1.49107C5.10209 1.47343 3.6827 1.99116 2.58452 2.94879C2.34841 3.15608 2.12915 3.38174 1.92873 3.62377C1.40099 4.25938 1.01285 5.00063 0.788355 5.80149C0.563863 6.60234 0.507822 7.44573 0.623741 8.27925C0.63133 8.40959 0.656052 8.53886 0.69729 8.66373L0.712931 8.86592C0.744551 9.06542 0.794485 9.26208 0.862089 9.45345C1.31678 10.7776 2.19775 11.9242 3.36429 12.7103C4.53082 13.4964 5.91562 13.8766 7.29752 13.7901C8.76682 13.7076 10.1392 13.0894 11.1561 12.052C12.661 10.5471 14.1659 9.04226 15.6645 7.54359C15.7003 7.50783 15.7291 7.43412 15.7894 7.4571C15.8497 7.48009 15.8255 7.54915 15.8373 7.59824C16.0415 8.53547 16.4124 9.43307 16.9322 10.2478C17.2328 10.7282 17.5856 11.1749 17.9839 11.5793C18.112 11.7074 18.128 11.7234 18.2586 11.596C18.7984 11.0754 20.2309 9.58526 20.3724 9.44379Z" fill="white"/>
</svg>
