<svg width="22" height="22" viewBox="0 0 22 22" fill="none" xmlns="http://www.w3.org/2000/svg">
<path d="M21.4026 14.6649C21.6201 14.285 21.7312 13.8511 21.7246 13.4075C21.718 12.964 21.5939 12.5266 21.365 12.14C20.5362 10.7266 16.0246 6.21502 16.0246 6.21502C16.0246 6.21502 11.5178 1.70822 10.1012 0.876198C9.71462 0.647265 9.27726 0.523186 8.8337 0.516591C8.39014 0.509996 7.95624 0.62112 7.57627 0.838655C6.18533 1.6242 3.90472 3.90485 3.90472 3.90485C3.90472 3.90485 1.62871 6.18082 0.840058 7.57487C0.622523 7.95484 0.511399 8.38874 0.517994 8.8323C0.524589 9.27586 0.648668 9.71321 0.877601 10.0998C1.70487 11.5147 6.21487 16.0247 6.21487 16.0247C6.21487 16.0247 10.7233 20.5331 12.1414 21.3636C12.528 21.5925 12.9654 21.7166 13.4089 21.7232C13.8525 21.7298 14.2864 21.6187 14.6663 21.4012C16.0557 20.614 18.3348 18.3349 18.3348 18.3349C18.3348 18.3349 20.6123 16.0574 21.4026 14.6649ZM7.5876 11.7852L11.7851 7.58773L13.4324 13.4325L7.5876 11.7852Z" fill="white"/>
</svg>
